<svg width="512" height="512" viewBox="0 0 512 512" fill="none" xmlns="http://www.w3.org/2000/svg">
  <!-- Background circle -->
  <circle cx="256" cy="256" r="256" fill="#10b981"/>
  
  <!-- Treasure chest base -->
  <rect x="150" y="280" width="212" height="120" rx="12" fill="#8b4513"/>
  <rect x="150" y="280" width="212" height="20" fill="#a0522d"/>
  
  <!-- Treasure chest lid -->
  <path d="M150 280 Q150 240 175 220 Q200 200 256 200 Q312 200 337 220 Q362 240 362 280 L362 300 L150 300 Z" fill="#cd853f"/>
  
  <!-- Lock -->
  <circle cx="256" cy="290" r="16" fill="#ffd700"/>
  <rect x="252" y="290" width="8" height="20" fill="#ffd700"/>
  
  <!-- Map pin location marker -->
  <path d="M256 120 Q276 120 286 140 Q296 160 286 180 L256 220 L226 180 Q216 160 226 140 Q236 120 256 120 Z" fill="#ffffff"/>
  <circle cx="256" cy="150" r="15" fill="#10b981"/>
  
  <!-- Decorative stars -->
  <path d="M180 160 L182 166 L188 166 L183 170 L185 176 L180 172 L175 176 L177 170 L172 166 L178 166 Z" fill="#ffd700"/>
  <path d="M330 180 L332 186 L338 186 L333 190 L335 196 L330 192 L325 196 L327 190 L322 186 L328 186 Z" fill="#ffd700"/>
  <path d="M200 350 L202 356 L208 356 L203 360 L205 366 L200 362 L195 366 L197 360 L192 356 L198 356 Z" fill="#ffd700"/>
  <path d="M320 350 L322 356 L328 356 L323 360 L325 366 L320 362 L315 366 L317 360 L312 356 L318 356 Z" fill="#ffd700"/>
</svg>